<svg xmlns="http://www.w3.org/2000/svg" viewBox="0 0 161.532 164.992"><defs><style>.cls-1{fill:#7084cb;}.cls-2{fill:#f4f6f8;}.cls-3{fill:#0c1238;}.cls-10,.cls-11,.cls-4,.cls-5,.cls-8,.cls-9{fill:none;}.cls-11,.cls-5{stroke:#0c1238;}.cls-10,.cls-11,.cls-5{stroke-linecap:round;}.cls-5,.cls-8{stroke-linejoin:round;}.cls-10,.cls-5,.cls-8,.cls-9{stroke-width:2px;}.cls-6{fill:#fff;}.cls-7{fill:#4c5eb8;}.cls-8,.cls-9{stroke:#ecf0f3;}.cls-10,.cls-11,.cls-9{stroke-miterlimit:10;}.cls-10{stroke:#fff;}</style></defs><title>banner</title><path class="cls-1" d="M0 82.524a115 115 0 0 1 6.168-37.54c6.832-19.528 19.8-32.917 39.087-39.193a112.913 112.913 0 0 1 70.795-.2c22.913 7.349 36.57 23.974 42.041 47.588a126.578 126.578 0 0 1-.458 60.5c-6.577 25.8-22.947 41.754-48.218 47.828a117.349 117.349 0 0 1-60.366-.957c-34.502-9.82-49.036-44.179-49.049-78.026z"/><path class="cls-2" d="M8.479 42.318h144.779v89.753h-144.779z"/><path class="cls-3" d="M8.479 29.415h144.779v18.854h-144.779z"/><circle class="cls-3" cx="43.946" cy="36.435" r="4.386"/><path class="cls-3" d="M56.732 32.691h7.487v7.487h-7.487zM24.147 40.248l4.733-7.627 4.734 7.627h-9.467z"/><path class="cls-4" d="M9.052 30.345h143.841v102.187h-143.841z"/><path class="cls-5" d="M9.052 30.345h143.841v102.187h-143.841z"/><circle class="cls-6" cx="31.795" cy="38.433" r="4.345"/><path class="cls-6" d="M40.376 34.724h7.417v7.417h-7.417zM14.225 42.21l4.689-7.555 4.689 7.555h-9.378zM15.421 66.643h129.183v57.811h-129.183z"/><path class="cls-7" d="M15.421 55.193h129.183v26.714h-129.183z"/><path class="cls-8" d="M25.47 101.469c5.271-.6 13.266-9.044 11.08-12.242s-3.179.864-4.108 2.494a17.63 17.63 0 0 0-1.675 5.579 8.375 8.375 0 0 0-.12 3.493c.617 2.433 3.089 3.219 5.142 3.119a14.489 14.489 0 0 0 8.988-3.9 1.677 1.677 0 0 0 1.192 2.344 4.273 4.273 0 0 0 2.53-1.188c.8-.564 1.794-1.017 2.6-.475a5.578 5.578 0 0 1 .91.97c1.806 2.029 4.611 1.454 6.98.755l7.878-.034a47.819 47.819 0 0 1 7.959.409"/><path class="cls-9" d="M55.051 111.83l-28.521.294M41.075 116.671l-14.545.15M95.835 111.83l-28.52.294M87.849 116.671l-20.534.15M134.053 111.83l-28.521.294M115.8 116.671l-10.268.15"/><path class="cls-10" d="M72.042 72.994a18.11 18.11 0 0 0 9.992-11.477 1.712 1.712 0 0 0-.166-1.7 1.573 1.573 0 0 0-1.331-.262 7.719 7.719 0 0 0-5.961 5.316c-1.351 4.19 1.147 9.332 5.38 10.541s9.245-2.179 9.391-6.579c.063-1.886-1.537-4.183-3.265-3.425a2.837 2.837 0 0 0-1.37 2.64 6.689 6.689 0 0 0 6.866 6.534"/><path class="cls-11" d="M101.887 65.626l12.764-3.971M101.887 69.2h22.975M101.887 73.171l8.68 2.78M61.042 65.626l-12.764-3.971M61.042 69.2h-22.976M61.042 73.171l-8.68 2.78"/></svg>