<svg xmlns="http://www.w3.org/2000/svg" viewBox="0 0 161.532 164.992"><defs><style>.cls-1{fill:#7084cb;}.cls-2{fill:#0c1238;}.cls-3{fill:#fff;}.cls-4{fill:#f4f6f8;}</style></defs><title>quicklink googlemap</title><path class="cls-1" d="M0 82.524a115 115 0 0 1 6.168-37.54c6.832-19.528 19.8-32.917 39.087-39.193a112.913 112.913 0 0 1 70.795-.2c22.913 7.349 36.57 23.974 42.041 47.588a126.578 126.578 0 0 1-.458 60.5c-6.577 25.8-22.947 41.754-48.218 47.828a117.349 117.349 0 0 1-60.366-.957c-34.502-9.82-49.036-44.179-49.049-78.026z"/><path class="cls-2" d="M63.857 90.277c4.3 3.049 8.682 5.995 12.814 9.277l1.566 1.208a18.409 18.409 0 0 0 1.522 1.269l3.169 2.366c2.127 1.558 4.1 3.321 6.231 4.879q6.454 4.575 12.972 9.062c1.083.753 2.179 1.487 3.217 2.3l3.114 2.442q3.192 2.336 6.462 4.563a.8.8 0 1 1-.9 1.322l-.009-.006-.035-.025-6.454-4.575c-1.08-.756-2.1-1.591-3.133-2.415s-2.1-1.59-3.169-2.367l-12.81-9.277c-2.169-1.5-4.407-2.907-6.463-4.563l-3.039-2.544a9.491 9.491 0 0 0-.775-.615c-.278-.178-.571-.335-.835-.533l-1.546-1.245c-1.03-.825-2.062-1.646-3.115-2.44-1.076-.762-2.247-1.394-3.305-2.181-2.142-1.537-4.313-3.035-6.424-4.615a.8.8 0 0 1 .945-1.291zM49.935 98.47c3.5 2.459 7.07 4.816 10.4 7.508l1.264.987a10.386 10.386 0 0 0 1.219 1.048l2.565 1.924c1.724 1.263 3.3 2.731 5.022 3.994 3.5 2.46 7.023 4.88 10.554 7.293.881.606 1.776 1.192 2.613 1.859l2.509 2q2.587 1.893 5.253 3.679a.8.8 0 0 1-.891 1.329l-.012-.008-.042-.029c-1.747-1.232-3.511-2.44-5.245-3.691-.879-.609-1.7-1.3-2.529-1.973s-1.7-1.3-2.564-1.924l-10.393-7.513c-1.766-1.206-3.6-2.317-5.254-3.678-.827-.68-1.6-1.433-2.43-2.108a7.274 7.274 0 0 0-.628-.5c-.228-.141-.47-.262-.684-.422l-1.243-1.015c-.827-.679-1.641-1.376-2.51-2s-1.852-1.088-2.7-1.738c-1.74-1.242-3.508-2.445-5.216-3.73a.8.8 0 0 1 .945-1.292zM28.056 113.741c5.493-4.119 10.911-8.341 16.575-12.228l2.107-1.48c.725-.462 1.469-.9 2.152-1.419l4.178-3.01 8.463-5.873 16.417-12.442c1.367-1.039 2.719-2.1 4.13-3.075l4.233-2.934c2.776-2.02 5.486-4.129 8.232-6.189a.8.8 0 1 1 .96 1.28l-.015.011-8.241 6.177c-1.369 1.036-2.8 1.993-4.214 2.961s-2.795 1.994-4.178 3.01l-16.578 12.221c-2.729 2.084-5.389 4.261-8.232 6.189l-4.309 2.832c-.359.236-.723.465-1.061.729s-.654.561-1 .811l-2.128 1.452c-1.419.967-2.836 1.938-4.232 2.936-1.373 1.03-2.651 2.19-4.042 3.2-2.756 2.047-5.483 4.133-8.27 6.137a.8.8 0 0 1-.945-1.291zM47.445 83.733c3.4-2.583 6.714-5.271 10.28-7.621l1.321-.9a10.324 10.324 0 0 0 1.365-.843l2.6-1.859 5.316-3.57c3.4-2.583 6.762-5.206 10.122-7.836.842-.655 1.67-1.329 2.556-1.923l2.66-1.783q2.582-1.889 5.085-3.886a.8.8 0 0 1 1 1.251l-.012.009-.038.028c-1.7 1.29-3.381 2.6-5.094 3.874-.844.652-1.746 1.225-2.64 1.809s-1.746 1.226-2.6 1.858l-10.289 7.615c-1.68 1.316-3.291 2.726-5.084 3.886-.9.582-1.845 1.089-2.739 1.674a7.343 7.343 0 0 0-.664.447c-.2.174-.391.368-.608.523l-1.341.876c-.9.582-1.8 1.145-2.659 1.784s-1.594 1.434-2.469 2.044c-1.707 1.279-3.385 2.6-5.123 3.834a.8.8 0 0 1-.945-1.292z"/><path class="cls-3" d="M127.878 64.568c0 12.15-15.962 33.661-24.735 44.541-3.312 4.126-5.592 6.721-5.592 6.721s-30.328-34.518-30.328-51.262a30.335 30.335 0 0 1 30.327-30.328c.738 0 1.466.022 2.183.087a30.326 30.326 0 0 1 28.145 30.241z"/><path class="cls-4" d="M103.142 109.109c-3.312 4.126-5.592 6.721-5.592 6.721s-30.327-34.518-30.327-51.262a30.335 30.335 0 0 1 30.327-30.328c.738 0 1.466.022 2.183.087-7.406 6.559-7.743 18.21-9.3 26.635-1.857 10.077 5.386 19.22 10.511 28.091 4.793 8.285 1.319 13.367 2.198 20.056z"/><path class="cls-1" d="M112.031 64.08a14.477 14.477 0 1 1-14.48-14.48 14.474 14.474 0 0 1 14.48 14.48z"/></svg>