<svg xmlns="http://www.w3.org/2000/svg" viewBox="0 0 161.532 164.992"><defs><style>.cls-1{fill:#7084cb;}.cls-2{fill:#f4f6f8;}.cls-3{fill:#0c1238;}.cls-4{fill:#fff;}.cls-5{fill:#5e6ebf;}.cls-6{fill:#4c5eb8;}.cls-7{fill:#202e78;}.cls-8{fill:#152371;}.cls-10,.cls-11,.cls-9{fill:none;stroke-width:2px;}.cls-10,.cls-9{stroke:#0c1238;}.cls-11,.cls-9{stroke-miterlimit:10;}.cls-10{stroke-linecap:round;stroke-linejoin:round;}.cls-11{stroke:#7084cb;}</style></defs><title>story telling</title><path class="cls-1" d="M0 82.524a115 115 0 0 1 6.168-37.54c6.832-19.528 19.8-32.917 39.087-39.193a112.913 112.913 0 0 1 70.795-.2c22.913 7.349 36.57 23.974 42.041 47.588a126.578 126.578 0 0 1-.458 60.5c-6.577 25.8-22.947 41.754-48.218 47.828a117.349 117.349 0 0 1-60.366-.957c-34.502-9.82-49.036-44.179-49.049-78.026z"/><path class="cls-2" d="M7.138 38.764h147.256v91.289h-147.256z"/><path class="cls-3" d="M7.138 25.64h147.256v19.176h-147.256z"/><circle class="cls-3" cx="43.211" cy="32.78" r="4.461"/><path class="cls-3" d="M56.216 28.972h7.616v7.616h-7.616zM23.073 36.659l4.815-7.758 4.815 7.758h-9.63z"/><circle class="cls-4" cx="30.552" cy="34.812" r="4.419"/><path class="cls-4" d="M39.58 31.04h7.544v7.544h-7.544zM12.982 38.654l4.769-7.684 4.77 7.684h-9.539z"/><path class="cls-5" d="M86.016 106.541l39.771-21.396 28.14 20.706v23.832h-43.899l-24.012-23.142z"/><path class="cls-6" d="M124.88 85.209c1.412 4.182-3.272 8.052-3.714 12.413-.435 4.293 3.284 7.953 7.069 10.5 4.484 3.015 9.475 5.4 13.661 8.756s7.6 7.7 7.489 12.807h-49.112l-14.257-23.144z"/><path class="cls-7" d="M8.724 89.286l32.268-26.918 69.036 67.315h-101.505l.201-40.397z"/><ellipse class="cls-4" cx="113.351" cy="65.129" rx="12.391" ry="12.346"/><path class="cls-8" d="M52.019 129.683c-1.492-4.235.633-9.073 1.808-13.391a31.833 31.833 0 0 0-7.669-29.759c-2.73-2.917-6.072-5.482-7.773-9-2.248-4.647-.972-11.574 3.04-15.074l-32.701 26.827-.2 40.4z"/><path class="cls-9" d="M7.721 26.587h146.302v103.936h-146.302z"/><path class="cls-4" d="M19.727 51.41h61.346v65.18h-61.346z"/><path class="cls-10" d="M26.323 68.562c4.8-.442 12.078-6.633 10.088-8.978s-2.895.634-3.74 1.829a11.157 11.157 0 0 0-1.525 4.087 4.982 4.982 0 0 0-.109 2.562c.562 1.784 2.812 2.361 4.681 2.288a14.919 14.919 0 0 0 8.182-2.856c-.519.653.253 1.666 1.085 1.719a4.353 4.353 0 0 0 2.3-.872 2.52 2.52 0 0 1 2.366-.348 4.624 4.624 0 0 1 .829.712c1.644 1.488 4.2 1.067 6.355.554l7.173-.025a53.942 53.942 0 0 1 7.247.3"/><path class="cls-11" d="M29.157 81.222h34.081M29.157 86.76h34.081M29.157 92.298h20.875M29.157 103.374h34.081M29.157 108.913h14.853"/></svg>