<svg xmlns="http://www.w3.org/2000/svg" viewBox="0 0 152.775 155.336"><defs><style>.cls-1{fill:#7084cb;}.cls-2{fill:#fff;}.cls-3,.cls-4,.cls-5,.cls-6{fill:none;stroke-width:2px;}.cls-3,.cls-4{stroke:#212e78;stroke-linecap:round;}.cls-3,.cls-6{stroke-miterlimit:10;}.cls-4,.cls-5{stroke-linejoin:round;}.cls-5{stroke:#fff;}.cls-6{stroke:#7084cb;}</style></defs><title>testimonials-faq-comments</title><path class="cls-1" d="M.007 77.7c-.372-31.357 13.824-62.657 43.293-72.248a106.305 106.305 0 0 1 66.652-.185c21.572 6.919 34.43 22.571 39.581 44.8a119.17 119.17 0 0 1-.431 56.96c-6.192 24.295-21.6 39.311-45.4 45.029a110.481 110.481 0 0 1-56.833-.9c-30.597-8.712-46.478-41.114-46.862-73.456z"/><path class="cls-2" d="M40.136 116.276h65.6a6.572 6.572 0 0 0 6.305-6.81v-32.494a6.572 6.572 0 0 0-6.305-6.81h-67.867a6.572 6.572 0 0 0-6.305 6.81v30.047c0 3.826-6.805 9.258-6.805 9.258z"/><path class="cls-3" d="M110.5 64.209h-47.29a4.737 4.737 0 0 1-4.545-4.909v-23.421a4.737 4.737 0 0 1 4.545-4.909h48.92a4.737 4.737 0 0 1 4.545 4.908v21.658c0 2.758 4.905 6.673 4.905 6.673z"/><path class="cls-4" d="M44.068 87.852c5.126-.472 12.9-7.085 10.776-9.59s-3.092.677-4 1.954a11.918 11.918 0 0 0-1.628 4.367 5.321 5.321 0 0 0-.116 2.737c.6 1.906 3 2.521 5 2.444a15.936 15.936 0 0 0 8.742-3.052c-.555.7.27 1.78 1.159 1.836a4.649 4.649 0 0 0 2.461-.931 2.692 2.692 0 0 1 2.528-.372 4.94 4.94 0 0 1 .885.76c1.757 1.589 4.484 1.139 6.789.591l7.662-.026a57.621 57.621 0 0 1 7.741.321"/><path class="cls-5" d="M66.122 47.73h43.247M66.122 41.168h43.247M66.122 54.252h25.038"/><path class="cls-6" d="M43.647 98.266h50.967M43.647 104.753h33.159"/></svg>