<svg xmlns="http://www.w3.org/2000/svg" viewBox="0 0 161.532 164.992"><defs><style>.cls-1{fill:#7084cb;}.cls-2{fill:#0c1238;}.cls-3{fill:#fff;}.cls-4,.cls-5,.cls-6{fill:none;stroke-width:2px;}.cls-4,.cls-6{stroke:#fff;}.cls-4{stroke-linecap:round;stroke-linejoin:round;}.cls-5{stroke:#212e78;}.cls-5,.cls-6{stroke-miterlimit:10;}</style></defs><title>multi level menu</title><path class="cls-1" d="M0 82.524a115 115 0 0 1 6.168-37.54c6.832-19.528 19.8-32.917 39.087-39.193a112.913 112.913 0 0 1 70.795-.2c22.913 7.349 36.57 23.974 42.041 47.588a126.578 126.578 0 0 1-.458 60.5c-6.577 25.8-22.947 41.754-48.218 47.828a117.349 117.349 0 0 1-60.366-.957c-34.502-9.82-49.036-44.179-49.049-78.026z"/><path class="cls-2" d="M34.766 38.341h92v23.711h-92z"/><path class="cls-3" d="M98.679 76.675l9.398-7.555 9.398 7.555h-18.796zM33.812 76.506h92.667v15.333h-92.667z"/><path class="cls-2" d="M45.145 94.84h92.667v15.333h-92.667z"/><path class="cls-4" d="M43.186 53.66c4.156-.461 10.459-6.927 8.735-9.376s-2.507.662-3.239 1.91a13.22 13.22 0 0 0-1.32 4.269 6.236 6.236 0 0 0-.094 2.676c.486 1.861 2.432 2.461 4.053 2.389a11.591 11.591 0 0 0 7.087-2.984 1.279 1.279 0 0 0 .94 1.795 3.413 3.413 0 0 0 1.995-.91 1.88 1.88 0 0 1 2.049-.363 4.325 4.325 0 0 1 .718.743c1.424 1.554 3.635 1.114 5.5.578l6.211-.026c2.1-.009 22.2-.017 24.275.314"/><path class="cls-5" d="M40.224 83.341h48.209M93.224 83.341h16.921"/><path class="cls-3" d="M33.812 113.173h92.667v15.333h-92.667z"/><path class="cls-5" d="M40.224 119.008h36.209M80.89 119.008h12.255"/><path class="cls-6" d="M77.812 102.175h42.954M55.224 102.175h18.588"/></svg>