<svg xmlns="http://www.w3.org/2000/svg" viewBox="0 0 161.532 164.992"><defs><style>.cls-1{fill:#7084cb;}.cls-2{fill:#f4f6f8;}.cls-3,.cls-8,.cls-9{fill:none;stroke-width:2px;}.cls-3,.cls-8{stroke:#0c1238;}.cls-3,.cls-9{stroke-miterlimit:10;}.cls-4{fill:#0c1238;}.cls-5{fill:#fff;}.cls-6{fill:#e0e3ed;}.cls-7{fill:#5e6ebf;}.cls-8{stroke-linecap:round;stroke-linejoin:round;}.cls-9{stroke:#fff;}</style></defs><title>quickview</title><path class="cls-1" d="M0 82.524a115 115 0 0 1 6.168-37.54c6.832-19.528 19.8-32.917 39.087-39.193a112.913 112.913 0 0 1 70.795-.2c22.913 7.349 36.57 23.974 42.041 47.588a126.578 126.578 0 0 1-.458 60.5c-6.577 25.8-22.947 41.754-48.218 47.828a117.349 117.349 0 0 1-60.366-.957c-34.502-9.82-49.036-44.179-49.049-78.026z"/><path class="cls-2" d="M8.633 31.644h144.475v102.638h-144.475z"/><path class="cls-3" d="M8.633 31.644h144.475v102.638h-144.475z"/><path class="cls-4" d="M8.057 30.71h145.417v18.937h-145.417z"/><circle class="cls-4" cx="43.68" cy="37.76" r="4.406"/><path class="cls-4" d="M56.523 34h7.52v7.52h-7.52zM23.794 41.591l4.754-7.661 4.755 7.661h-9.509z"/><circle class="cls-5" cx="31.179" cy="39.767" r="4.364"/><path class="cls-5" d="M40.095 36.043h7.449v7.449h-7.449zM13.829 43.561l4.709-7.588 4.71 7.588h-9.419z"/><path class="cls-6" d="M18.696 61.367h33.237v32.374h-33.237zM18.696 100.648h33.237v32.374h-33.237zM110.206 61.367h33.237v32.374h-33.237zM110.206 100.648h33.237v32.374h-33.237zM65.315 100.648h33.237v32.374h-33.237z"/><path class="cls-7" d="M46.847 55.612h65.806v71.366h-65.806z"/><path class="cls-4" d="M61.48 77.927a24.408 24.408 0 0 1 1.307-7.986 12.676 12.676 0 0 1 8.313-8.341 24.021 24.021 0 0 1 15.061-.042c4.874 1.563 7.78 5.1 8.944 10.124a26.928 26.928 0 0 1-.1 12.871 13.121 13.121 0 0 1-10.253 10.178 24.964 24.964 0 0 1-12.842-.2c-7.325-2.09-10.422-9.404-10.43-16.604z"/><path class="cls-5" d="M78.659 65.397l12.506 12.506-12.506 12.506-12.506-12.506z"/><path class="cls-8" d="M53.74 104.833c3.671-.408 9.238-6.118 7.716-8.282s-2.214.584-2.861 1.687a11.677 11.677 0 0 0-1.166 3.771 5.508 5.508 0 0 0-.083 2.363c.429 1.646 2.151 2.177 3.581 2.11a10.238 10.238 0 0 0 6.259-2.635 1.13 1.13 0 0 0 .83 1.585 3.015 3.015 0 0 0 1.762-.8 1.661 1.661 0 0 1 1.81-.321 3.82 3.82 0 0 1 .634.657c1.258 1.373 3.211.984 4.861.511l5.486-.023a34.269 34.269 0 0 1 5.543.277"/><path class="cls-9" d="M53.614 118.561h36.305M53.614 113.813h20.334"/></svg>