<svg xmlns="http://www.w3.org/2000/svg" viewBox="0 0 161.909 165.4"><defs><style>.cls-1{fill:#7084cb;}.cls-2,.cls-7{fill:#f4f6f8;}.cls-12,.cls-2{stroke:#0c1238;stroke-width:2px;}.cls-12,.cls-2,.cls-4,.cls-5,.cls-6{stroke-miterlimit:10;}.cls-3{fill:#4c5eb8;}.cls-12,.cls-4,.cls-5,.cls-6{fill:none;}.cls-4,.cls-5,.cls-6{stroke:#fff;}.cls-5{stroke-dasharray:8.327 6.246;}.cls-6{stroke-dasharray:7.022 5.267;}.cls-8{fill:#5e6ebf;}.cls-9{fill:#202e78;}.cls-10{fill:#fff;}.cls-11{fill:#152371;}</style></defs><title>zoom</title><path class="cls-1" d="M0 82.728a115.043 115.043 0 0 1 6.161-37.628c6.844-19.581 19.849-33 39.183-39.3a113.193 113.193 0 0 1 70.97-.2c22.969 7.368 36.66 24.034 42.145 47.706a126.891 126.891 0 0 1-.459 60.65c-6.594 25.869-23 41.858-48.337 47.947a117.639 117.639 0 0 1-60.516-.959c-34.538-9.827-49.109-44.302-49.147-78.216z"/><path class="cls-2" d="M25.18 102.298h38.675v26.503h-38.675z"/><path class="cls-3" d="M32.392 83.7h55.446v37.101h-55.446z"/><path class="cls-4" d="M113.019 109.048v4h-4"/><path class="cls-5" d="M102.774 113.048h-55.169"/><path class="cls-4" d="M44.482 113.048h-4v-4"/><path class="cls-6" d="M40.482 103.781v-34.234"/><path class="cls-4" d="M40.482 66.914v-4h4"/><path class="cls-5" d="M50.727 62.914h55.169"/><path class="cls-4" d="M109.019 62.914h4v4"/><path class="cls-6" d="M113.019 72.18v34.234"/><path class="cls-7" d="M48.174 41.593h92.705v62.672h-92.705z"/><path class="cls-8" d="M97.583 88.713l25.36-14.358 17.936 13.908v16.001h-27.991l-15.305-15.551z"/><path class="cls-3" d="M122.366 74.4c.9 2.808-2.088 5.406-2.37 8.333-.278 2.882 2.092 5.341 4.5 7.05 2.858 2.025 6.04 3.626 8.707 5.882s4.846 5.172 4.772 8.6h-31.307l-9.085-15.552z"/><path class="cls-9" d="M48.174 77.112l20.714-18.066 44 45.218h-64.714v-27.152z"/><ellipse class="cls-10" cx="115.019" cy="60.914" rx="7.899" ry="8.289"/><path class="cls-11" d="M75.9 104.264c-.951-2.844.406-6.112 1.156-9.011a22.183 22.183 0 0 0-4.883-19.982c-1.74-1.959-3.87-3.682-4.954-6.044a9.47 9.47 0 0 1 1.941-10.12l-20.991 18v27.152z"/><path class="cls-12" d="M48.174 41.593h92.705v62.672h-92.705z"/></svg>