<svg xmlns="http://www.w3.org/2000/svg" viewBox="0 0 161.532 164.992"><defs><style>.cls-1,.cls-6{fill:#fff;}.cls-2{fill:#7084cb;}.cls-3{fill:#f4f6f8;}.cls-4,.cls-9{fill:none;}.cls-4,.cls-6,.cls-7{stroke:#0c1238;}.cls-4,.cls-6,.cls-7,.cls-9{stroke-miterlimit:10;stroke-width:2px;}.cls-5,.cls-7{fill:#0c1238;}.cls-8{fill:#5e6ebf;}.cls-9{stroke:#fff;}</style></defs><title>filter by x</title><path class="cls-1" d="M70.386 122.253h24.548v13.153h-24.548zM38.876 122.253h24.548v13.153h-24.548zM101.673 122.253h24.548v13.153h-24.548z"/><path class="cls-2" d="M0 82.524a115 115 0 0 1 6.168-37.54c6.832-19.528 19.8-32.917 39.087-39.193a112.913 112.913 0 0 1 70.795-.2c22.913 7.349 36.57 23.974 42.041 47.588a126.578 126.578 0 0 1-.458 60.5c-6.577 25.8-22.947 41.754-48.218 47.828a117.349 117.349 0 0 1-60.366-.957c-34.502-9.82-49.036-44.179-49.049-78.026z"/><path class="cls-3" d="M8.633 31.644h144.475v102.638h-144.475z"/><path class="cls-4" d="M8.633 31.644h144.475v102.638h-144.475z"/><path class="cls-5" d="M8.057 30.71h145.417v18.937h-145.417z"/><circle class="cls-5" cx="43.68" cy="37.76" r="4.406"/><path class="cls-5" d="M56.523 34h7.52v7.52h-7.52zM23.794 41.591l4.754-7.661 4.755 7.661h-9.509z"/><circle class="cls-1" cx="31.179" cy="39.767" r="4.364"/><path class="cls-1" d="M40.095 36.043h7.449v7.449h-7.449zM13.829 43.561l4.709-7.588 4.71 7.588h-9.419zM68.658 88.803h24.548v23.623h-24.548zM99.945 89.803h24.548v23.623h-24.548zM68.658 118.868h24.548v13.153h-24.548zM37.148 88.803h24.548v23.623h-24.548zM37.148 118.868h24.548v13.153h-24.548zM99.945 118.868h24.548v13.153h-24.548zM81.559 56.734h58.153v20.65h-58.153z"/><path class="cls-6" d="M77.335 72.209h64.464v53.236h-64.464z"/><path class="cls-7" d="M134.577 72.209l-3.85-5.017-3.85 5.017M86.573 82.085h38.088M86.573 115.568h34.061"/><path class="cls-8" d="M78.335 89.433h62.464v18.298h-62.464z"/><path class="cls-7" d="M88.588 64.529h25.773"/><path class="cls-9" d="M86.573 98.827h44.154"/></svg>