<svg xmlns="http://www.w3.org/2000/svg" viewBox="0 0 161.532 164.992"><defs><style>.cls-1{fill:#7084cb;}.cls-2{fill:#fff;}.cls-3{fill:#0c1238;}.cls-4{fill:#5e6ebf;}.cls-5{fill:#e0e3ed;}.cls-6,.cls-7{fill:none;stroke-miterlimit:10;stroke-width:2px;}.cls-6{stroke:#0c1238;}.cls-7{stroke:#fff;stroke-linecap:round;}</style></defs><title>sidebar nav</title><path class="cls-1" d="M0 82.524a115 115 0 0 1 6.168-37.54c6.832-19.528 19.8-32.917 39.087-39.193a112.913 112.913 0 0 1 70.795-.2c22.913 7.349 36.57 23.974 42.041 47.588a126.578 126.578 0 0 1-.458 60.5c-6.577 25.8-22.947 41.754-48.218 47.828a117.349 117.349 0 0 1-60.366-.957c-34.502-9.82-49.036-44.179-49.049-78.026z"/><path class="cls-2" d="M8.603 43.961h144.327v89.473h-144.327z"/><path class="cls-3" d="M8.603 31.098h144.327v18.795h-144.327z"/><circle class="cls-3" cx="43.958" cy="38.096" r="4.373"/><path class="cls-3" d="M56.705 34.364h7.464v7.464h-7.464zM24.221 41.898l4.719-7.604 4.719 7.604h-9.438z"/><circle class="cls-2" cx="31.551" cy="40.088" r="4.331"/><path class="cls-2" d="M40.4 36.391h7.393v7.393h-7.393zM14.331 43.854l4.674-7.532 4.674 7.532h-9.348z"/><path class="cls-4" d="M152.815 133.406h-54.925l-.987-83.72h54.925l.987 83.72z"/><path class="cls-5" d="M24.89 90.72a40.744 40.744 0 0 1 2.182-13.331c2.428-6.934 7.028-11.689 13.88-13.918a40.1 40.1 0 0 1 25.14-.07c8.137 2.61 12.986 8.514 14.929 16.9a44.95 44.95 0 0 1-.162 21.485c-2.336 9.164-8.149 14.828-17.123 16.985a41.672 41.672 0 0 1-21.437-.34c-12.226-3.483-17.399-15.692-17.409-27.711z"/><path class="cls-2" d="M53.571 69.819l20.876 20.876-20.876 20.876-20.876-20.876z"/><path class="cls-6" d="M9.174 32.026h143.392v101.868h-143.392z"/><path class="cls-7" d="M113.956 72.38a22 22 0 0 0 12.137-13.941 2.08 2.08 0 0 0-.2-2.064 1.911 1.911 0 0 0-1.617-.318 9.376 9.376 0 0 0-7.24 6.457c-1.642 5.089 1.393 11.336 6.535 12.8s11.229-2.646 11.407-7.991c.076-2.291-1.867-5.081-3.966-4.161a3.446 3.446 0 0 0-1.664 3.207 8.125 8.125 0 0 0 8.34 7.936"/><path class="cls-6" d="M107.467 86.638h32.25M107.467 95.138h19.802M107.467 103.638h32.25M107.467 112.138h14.145"/></svg>